<?xml version="1.0" standalone="no"?>
<!DOCTYPE svg PUBLIC "-//W3C//DTD SVG 20010904//EN"
 "http://www.w3.org/TR/2001/REC-SVG-20010904/DTD/svg10.dtd">
<svg version="1.0" xmlns="http://www.w3.org/2000/svg"
 width="18" height="18" viewBox="0 0 512.000000 512.000000"
 preserveAspectRatio="xMidYMid meet">

<g transform="translate(0.000000,512.000000) scale(0.100000,-0.100000)"
fill="#8898a7" stroke="none">
<path d="M969 5092 c-39 -20 -62 -41 -84 -77 l-30 -48 -3 -244 -4 -243 -136 0
c-168 0 -249 -16 -361 -72 -166 -82 -299 -253 -336 -433 -13 -60 -15 -316 -15
-1735 0 -1859 -4 -1738 72 -1890 73 -145 203 -257 370 -318 l73 -27 2012 -3
c2250 -3 2088 -8 2242 70 149 75 272 221 324 383 l22 70 0 1715 0 1715 -22 70
c-52 163 -175 309 -323 383 -111 55 -192 72 -362 72 l-136 0 -4 243 -3 244
-30 48 c-22 36 -45 57 -84 77 -51 27 -59 28 -202 28 -163 0 -200 -9 -252 -58
-64 -60 -67 -77 -67 -342 l0 -240 -1070 0 -1070 0 0 235 c0 256 -4 281 -58
339 -52 56 -91 66 -258 66 -147 0 -153 -1 -205 -28z m3719 -3320 l-3 -1209
-27 -39 c-15 -21 -44 -50 -65 -64 l-37 -25 -1996 0 -1997 0 -39 27 c-21 15
-50 44 -64 65 l-25 37 -3 1208 -2 1208 2130 0 2130 0 -2 -1208z"/>
</g>
</svg>
