<?xml version="1.0" standalone="no"?>
<!DOCTYPE svg PUBLIC "-//W3C//DTD SVG 20010904//EN"
 "http://www.w3.org/TR/2001/REC-SVG-20010904/DTD/svg10.dtd">
<svg version="1.0" xmlns="http://www.w3.org/2000/svg"
 width="40" height="40" viewBox="0 0 1024.000000 1024.000000"
 preserveAspectRatio="xMidYMid meet">

<g transform="translate(0.000000,1024.000000) scale(0.100000,-0.100000)"
fill="#04293f" stroke="none">
<path d="M3506 8725 c-132 -27 -288 -119 -366 -217 -53 -66 -103 -165 -127
-249 -17 -60 -18 -120 -15 -996 2 -753 0 -933 -10 -933 -19 0 -121 40 -137 53
-12 10 -13 53 -8 254 5 159 3 243 -3 243 -6 0 -65 -20 -133 -45 l-122 -45 2
-703 c2 -386 4 -1303 5 -2037 l3 -1335 32 -92 c93 -266 243 -446 468 -560 65
-34 368 -145 775 -284 173 -60 445 -155 752 -263 265 -93 299 -100 488 -100
198 0 209 2 601 140 151 53 344 120 429 149 271 93 794 282 884 318 289 118
492 349 572 652 17 67 18 162 21 2092 l3 2021 -105 41 c-58 22 -116 43 -130
47 l-25 6 0 -259 0 -259 -68 -22 c-38 -12 -71 -22 -75 -22 -4 0 -7 415 -7 923
0 1010 0 996 -60 1125 -79 169 -224 290 -416 348 -56 17 -149 18 -1609 20
-1282 2 -1562 0 -1619 -11z m1973 -505 c30 -15 46 -66 31 -95 -23 -44 -45 -46
-422 -43 -334 3 -357 4 -377 22 -28 26 -28 79 1 106 21 19 33 20 386 20 213 0
371 -4 381 -10z m1432 -592 c0 -7 1 -323 2 -701 2 -680 2 -688 -18 -693 -197
-45 -657 -121 -910 -148 -682 -75 -1398 -58 -2100 50 -202 31 -547 95 -582
109 -10 3 -13 151 -13 693 0 379 3 692 7 695 3 4 818 7 1810 7 1435 0 1803 -3
1804 -12z m-3520 -2414 c4 -16 7 -94 8 -174 1 -164 -7 -190 -59 -190 -46 0
-51 21 -48 212 3 171 3 173 27 184 33 17 65 3 72 -32z m3512 34 c14 -11 17
-37 18 -191 0 -125 -3 -182 -11 -193 -18 -21 -67 -18 -80 5 -6 12 -10 92 -10
190 0 164 1 170 22 185 27 19 39 20 61 4z m-1434 -69 c17 -6 37 -21 44 -33 9
-15 13 -120 15 -383 l3 -363 370 0 370 0 24 -25 25 -24 0 -359 c0 -348 -1
-360 -21 -386 l-20 -26 -375 0 -374 0 0 -356 c0 -363 -2 -383 -39 -411 -12 -9
-111 -12 -388 -13 l-372 0 -28 24 -28 24 -5 364 -5 363 -375 5 c-206 3 -376 7
-377 8 -1 1 -9 15 -18 32 -13 24 -15 84 -15 370 0 348 2 369 39 397 12 9 110
12 384 13 l367 0 0 343 c0 206 4 357 11 379 18 67 21 67 410 68 228 0 357 -4
378 -11z m-2089 -514 c8 -9 13 -71 15 -185 4 -159 3 -172 -15 -190 -24 -24
-48 -25 -72 -3 -16 14 -18 34 -18 194 0 159 2 179 18 188 25 15 58 13 72 -4z
m3534 -7 c10 -17 14 -62 14 -182 -1 -152 -2 -161 -23 -182 -24 -23 -55 -23
-74 0 -6 7 -11 89 -13 182 -3 188 1 204 53 204 19 0 33 -8 43 -22z m-3548
-556 c27 -18 34 -56 34 -196 0 -139 -1 -146 -24 -173 -24 -27 -26 -27 -53 -13
-36 20 -39 40 -33 222 4 117 8 151 20 158 18 12 41 12 56 2z m3538 -8 c13 -13
16 -44 16 -183 0 -155 -2 -169 -20 -186 -17 -15 -24 -16 -45 -7 -14 7 -29 22
-34 34 -4 13 -5 94 -2 181 5 125 9 160 21 167 22 14 47 12 64 -6z m-3517 -574
c9 -17 13 -75 13 -178 0 -149 -1 -154 -24 -177 -26 -26 -51 -25 -73 3 -18 22
-18 353 -1 370 21 21 71 10 85 -18z m3529 5 c13 -21 15 -48 11 -187 -5 -152
-6 -163 -27 -180 -28 -22 -32 -22 -60 0 -20 16 -21 26 -23 188 -2 188 2 204
54 204 19 0 34 -8 45 -25z m-3549 -543 c17 -11 83 -180 83 -213 0 -35 -21 -51
-62 -47 -31 3 -35 7 -65 84 -48 123 -49 129 -19 158 26 27 42 31 63 18z m3537
-8 c9 -8 16 -25 16 -37 0 -24 -44 -167 -61 -198 -11 -22 -68 -26 -87 -7 -16
16 -15 63 2 97 8 15 20 50 27 77 6 27 19 57 27 67 19 21 55 22 76 1z m-3214
-346 c36 -11 73 -27 83 -36 35 -30 14 -92 -32 -92 -28 0 -150 38 -190 59 -35
19 -22 81 19 93 18 6 36 2 120 -24z m2970 12 c24 -24 26 -62 5 -80 -8 -7 -58
-25 -111 -40 -94 -28 -96 -28 -115 -9 -23 23 -25 62 -3 80 18 16 159 67 187
68 9 1 26 -8 37 -19z m-2535 -155 c83 -29 106 -65 68 -107 -21 -24 -29 -23
-140 14 -76 25 -96 36 -104 55 -10 27 1 57 28 72 17 9 36 5 148 -34z m2100 27
c29 -21 36 -40 24 -65 -9 -21 -30 -32 -110 -58 -94 -31 -99 -31 -124 -15 -28
19 -34 66 -11 85 19 16 153 59 186 60 14 0 30 -3 35 -7z m-1699 -153 c51 -17
98 -37 104 -44 6 -8 10 -29 8 -47 -2 -28 -7 -34 -31 -36 -29 -3 -151 30 -199
54 -35 18 -44 48 -24 79 21 32 29 31 142 -6z m1286 14 c22 -20 23 -51 1 -75
-9 -10 -60 -32 -115 -48 -106 -33 -132 -31 -140 13 -10 50 6 65 104 96 110 35
125 36 150 14z m-853 -124 c112 -37 132 -52 124 -92 -9 -46 -38 -50 -142 -17
-107 33 -121 42 -121 81 0 25 22 59 38 59 3 0 49 -14 101 -31z m412 11 c24
-13 25 -61 2 -82 -10 -9 -60 -27 -112 -42 -88 -25 -95 -26 -112 -10 -26 24
-25 70 3 85 36 19 152 57 176 58 13 1 32 -4 43 -9z"/>
</g>
</svg>
