<?xml version="1.0" standalone="no"?>
<!DOCTYPE svg PUBLIC "-//W3C//DTD SVG 20010904//EN"
 "http://www.w3.org/TR/2001/REC-SVG-20010904/DTD/svg10.dtd">
<svg version="1.0" xmlns="http://www.w3.org/2000/svg"
 width="22" height="22" viewBox="0 0 512.000000 512.000000"
 preserveAspectRatio="xMidYMid meet">

<g transform="translate(0.000000,512.000000) scale(0.100000,-0.100000)"
fill="#8898a7" stroke="none">
<path d="M2340 4984 c-448 -54 -804 -183 -1145 -415 -563 -382 -926 -960
-1042 -1654 -25 -154 -25 -541 0 -705 81 -522 303 -969 662 -1338 340 -351
753 -582 1226 -686 923 -204 1900 160 2466 919 242 325 395 693 460 1105 25
163 25 550 -1 705 -92 559 -334 1023 -733 1405 -290 278 -641 477 -1028 584
-218 60 -350 78 -605 81 -124 2 -241 1 -260 -1z m478 -824 c168 -50 305 -131
423 -249 380 -380 380 -988 0 -1368 -122 -122 -270 -206 -447 -255 -105 -28
-343 -31 -446 -5 -247 62 -458 208 -593 412 -218 327 -215 750 6 1077 139 205
348 344 604 404 94 22 359 13 453 -16z m535 -2357 c134 -36 288 -106 402 -183
148 -100 303 -268 391 -426 l37 -66 -74 -75 c-510 -519 -1231 -747 -1949 -616
-418 76 -833 297 -1139 606 l-84 85 37 66 c86 153 228 310 378 416 146 105
364 192 544 219 33 5 347 8 699 7 l640 -2 118 -31z"/>
</g>
</svg>
